<svg xmlns:svg="http://www.w3.org/2000/svg" xmlns="http://www.w3.org/2000/svg" xmlns:xlink="http://www.w3.org/1999/xlink" version="1.0" width="64px" height="64px" viewBox="0 0 128 128" xml:space="preserve"><g><path d="M59.6 0h8v40h-8V0z" fill="#0a66c2"/><path d="M59.6 0h8v40h-8V0z" fill="#cee0f3" transform="rotate(30 64 64)"/><path d="M59.6 0h8v40h-8V0z" fill="#cee0f3" transform="rotate(60 64 64)"/><path d="M59.6 0h8v40h-8V0z" fill="#cee0f3" transform="rotate(90 64 64)"/><path d="M59.6 0h8v40h-8V0z" fill="#cee0f3" transform="rotate(120 64 64)"/><path d="M59.6 0h8v40h-8V0z" fill="#b5d1ed" transform="rotate(150 64 64)"/><path d="M59.6 0h8v40h-8V0z" fill="#9dc2e7" transform="rotate(180 64 64)"/><path d="M59.6 0h8v40h-8V0z" fill="#84b2e0" transform="rotate(210 64 64)"/><path d="M59.6 0h8v40h-8V0z" fill="#6ca3da" transform="rotate(240 64 64)"/><path d="M59.6 0h8v40h-8V0z" fill="#5394d4" transform="rotate(270 64 64)"/><path d="M59.6 0h8v40h-8V0z" fill="#3b85ce" transform="rotate(300 64 64)"/><path d="M59.6 0h8v40h-8V0z" fill="#2275c8" transform="rotate(330 64 64)"/><animateTransform attributeName="transform" type="rotate" values="0 64 64;30 64 64;60 64 64;90 64 64;120 64 64;150 64 64;180 64 64;210 64 64;240 64 64;270 64 64;300 64 64;330 64 64" calcMode="discrete" dur="1080ms" repeatCount="indefinite"></animateTransform></g></svg>